<?xml version="1.0" encoding="UTF-8"?>
<svg id="emoji" xmlns="http://www.w3.org/2000/svg" viewBox="0 0 72 72">
  <g id="color">
    <path d="m16.7643,58.7757s-2-13.7267,10-13.7267c3.1919,2.1279,5.9264,3.5984,9,3.5921h-.125c3.0736.0063,5.5082-2.1642,8.7-4.2921,13.7696,0,10.7,14.4267,10.7,14.4267" fill="#d0cfce" stroke-width="0"/>
    <path d="m50.9032,27.5319c0,1.2253-.147,2.4163-.4242,3.5563-1.5968,6.5677-7.5169,11.4437-14.5758,11.4437s-12.9788-4.8758-14.5758-11.4432c-.2773-1.1402-.4242-2.3314-.4242-3.5568,0-8.2843,6.7157-15,15-15s15,6.7157,15,15Z" fill="#d0cfce" stroke-width="0"/>
    <rect x="28.1418" y="52.9034" width="15.5608" height="5.8237" fill="#9a9b99" stroke-width="0"/>
    <path d="m35.9032,12.5319c-1.282,0-2.5196.1781-3.7075.4807,6.4703,1.6646,11.2548,7.5294,11.2548,14.5193,0,1.2252-.1468,2.4163-.4241,3.5563-1.306,5.3723-5.5078,9.6057-10.8569,10.9713,1.1941.306,2.4442.4724,3.7337.4724,7.0589,0,12.979-4.876,14.5758-11.4437.2772-1.14.4242-2.331.4242-3.5563,0-8.2843-6.7158-15-15-15Z" fill="#9b9b9a" stroke-width="0"/>
    <path d="m44.3393,44.349c-3.1739,2.116-5.6002,4.27-8.6495,4.2878-.064-.0004-.1262-.0092-.1899-.0109v.6387c13.0568.4112,13.0624,5.5118,13.8237,9.511h5.7158s2.9357-14.3383-10.7-14.4267Z" fill="#9b9b9a" stroke-width="0"/>
  </g>
  <g id="skin">
    <path d="m46.9635,26.5591c-.365-2.5625-13.943-8.5439-22.2102-.8061,0,0-.3152,1.9842-.3152,3.1318,0,7.8276,5.0767,14.1732,11.3389,14.1732s11.3384-6.3456,11.3384-14.1732c0-.7921.2131.2368-.1519-2.3257Z" fill="#fcea2b" stroke-width="0"/>
  </g>
  <g id="hair">
    <path d="m46.9635,26.5591c-.1118-.7847-1.4663-1.8893-3.5245-2.8232l.0683.5377s-.2459,10.7287,2.894,9.1588l.1237-.0576c.3776-1.4124.5904-2.9189.5904-4.49,0-.7921.2131.2368-.1519-2.3257Z" fill="#a37838" stroke-width="0"/>
    <path d="m34.3521,21.944c-3.327.1236-6.773,1.1642-9.5988,3.809,0,0-.3152,1.9842-.3152,3.1318,0,.7488.0602,1.4784.1497,2.1959,4.6859-2.6768,8.4443-7.3599,9.7642-9.1366Z" fill="#a37838" stroke-width="0"/>
  </g>
  <g id="line">
    <path d="m16.8702,57.8177s-2-13,10-13c3.1918,2.1279,5.9264,3.5984,9,3.5922h-.125c3.0736.0062,5.8081-1.4643,9-3.5922,12,0,10,13,10,13" fill="none" stroke="#000" stroke-linecap="round" stroke-linejoin="round" stroke-width="2"/>
    <path d="m50.9022,27.5319c0,1.2253-.1469,2.4163-.4241,3.5563-1.5969,6.5677-7.5169,11.4437-14.5759,11.4437s-12.9787-4.8758-14.5758-11.4432c-.2772-1.1402-.4242-2.3314-.4242-3.5568,0-8.2843,6.7157-15,15-15s15,6.7157,15,15Z" fill="none" stroke="#000" stroke-linecap="round" stroke-linejoin="round" stroke-width="2"/>
    <line x1="53.8642" y1="25.4668" x2="53.8642" y2="30.2376" fill="none" stroke="#000" stroke-linecap="round" stroke-linejoin="round" stroke-width="2"/>
    <line x1="17.7512" y1="25.4668" x2="17.7512" y2="30.2376" fill="none" stroke="#000" stroke-linecap="round" stroke-linejoin="round" stroke-width="2"/>
    <polyline points="43.8305 57.796 43.8305 52.988 28.5695 52.988 28.5695 57.796" fill="none" stroke="#000" stroke-linecap="round" stroke-linejoin="round" stroke-width="2"/>
    <path d="m24.6342,27.0875c-.0283.4081-.0427.821-.0427,1.2382,0,7.8277,5.0765,14.2062,11.3386,14.2062" fill="none" stroke="#000" stroke-linecap="round" stroke-miterlimit="10" stroke-width="2"/>
    <path d="m47.7916,28.0871c-.2095-.3904-.4467-.7659-.7094-1.1234-1.1918-1.6212-2.9103-2.8724-4.9635-3.4745-2.1203-.6217-4.1294-.903-6.2164-.8438-2.0871-.0592-4.0963.2221-6.2165.8438-2.5057.7348-4.513,2.4363-5.6725,4.5973" fill="none" stroke="#000" stroke-linecap="round" stroke-linejoin="round" stroke-width="2"/>
    <path d="m43.6021,24.3907s-.2621,10.7345,2.8779,9.1645" fill="none" stroke="#000" stroke-linecap="round" stroke-miterlimit="10" stroke-width="2"/>
    <path d="m33.9302,22.6961s-3.6548,5.391-8.4626,8.0149" fill="none" stroke="#000" stroke-linecap="round" stroke-miterlimit="10" stroke-width="2"/>
    <path d="m34.4875,58.7188c.0426-.1623.0653-.3326.0653-.5082,0-1.1035-.8965-2-2-2h.0068c-1.1035,0-2,.8965-2,2,0,.1756.0227.3459.0653.5082" stroke-width="0"/>
    <path d="m41.1895,58.7188c.0426-.1623.0653-.3326.0653-.5082,0-1.1035-.8965-2-2-2h.0068c-1.1035,0-2,.8965-2,2,0,.1756.0227.3459.0653.5082" stroke-width="0"/>
    <path d="m41.9302,26.9649c0,1.1045-.8965,2-2,2s-2-.8955-2-2c0-1.1035.8965-2,2-2s2,.8965,2,2" stroke-width="0"/>
    <path d="m33.9302,26.9649c0,1.1045-.8965,2-2,2s-2-.8955-2-2c0-1.1035.8965-2,2-2s2,.8965,2,2" stroke-width="0"/>
    <path d="m35.9301,36.9674c-1.1519,0-2.3037-.2862-3.4473-.858-.4941-.247-.6943-.8476-.4472-1.3417.2465-.4937.8462-.6944,1.3418-.4473,1.7177.8594,3.3877.8594,5.1054,0,.4947-.2471,1.0948-.0464,1.3418.4473.2471.4941.0469,1.0947-.4472,1.3417-1.1436.5718-2.2954.858-3.4473.858Z" stroke-width="0"/>
    <path d="m47.2319,27.1752c.0243.3795.0368.7632.0368,1.1505,0,2.1137-.1577,4.1838-1.1392,5.9533-2.8611,5.1583-9.5733,5.0747-9.5733,5.0747" fill="none" stroke="#000" stroke-linecap="round" stroke-miterlimit="10" stroke-width="2"/>
  </g>
</svg>